<?xml version="1.0" encoding="utf-8"?>
<!-- Generator: Adobe Illustrator 30.0.0, SVG Export Plug-In . SVG Version: 9.03 Build 0)  -->
<svg version="1.1" xmlns="http://www.w3.org/2000/svg" xmlns:xlink="http://www.w3.org/1999/xlink" x="0px" y="0px"
	 viewBox="0 0 1024 1024" style="enable-background:new 0 0 1024 1024;" xml:space="preserve">
<g>
</g>
<g id="normal-halo">
	<path style="fill-rule:evenodd;clip-rule:evenodd;" d="M406.4685669,845.7827759C264.8053894,800.9763184,162,668.399231,162,512
		c0-193.1699219,156.8301086-350,350-350c19.2981567,0,38.2333984,1.5651093,56.6853638,4.5757904l-21.374939,82.0289917
		C535.757019,247.0680542,523.97052,246.275177,512,246.275177c-146.6577454,0-265.724823,119.0670776-265.724823,265.724823
		c0,115.9953003,74.4846497,214.7314453,178.1930237,250.9474487L406.4685669,845.7827759z"/>
	<path style="fill-rule:evenodd;clip-rule:evenodd;" d="M842.6777954,397.1148987C855.196106,433.1081238,862,471.7655029,862,512
		c0,193.1699219-156.8300781,350-350,350c-14.3843994,0-28.5667114-0.8695679-42.4979248-2.559021l17.9996338-82.8326416
		c8.0671997,0.7388916,16.2393188,1.1164551,24.498291,1.1164551c146.6577148,0,265.7247925-119.0670166,265.7247925-265.7247925
		c0-27.8021851-4.2791138-54.6128845-12.2138672-79.8085938L842.6777954,397.1148987z"/>
</g>
</svg>
